<svg xmlns="http://www.w3.org/2000/svg" width="19" height="18" viewBox="0 0 19 18" fill="none">
  <path d="M4.42044 9.75098L12.7979 9.75098L9.13794 13.411C8.84544 13.7035 8.84544 14.1835 9.13794 14.476C9.20732 14.5455 9.28974 14.6007 9.38047 14.6383C9.4712 14.6759 9.56846 14.6953 9.66669 14.6953C9.76491 14.6953 9.86217 14.6759 9.9529 14.6383C10.0436 14.6007 10.1261 14.5455 10.1954 14.476L15.1379 9.53348C15.2075 9.46409 15.2626 9.38168 15.3003 9.29095C15.3379 9.20022 15.3573 9.10296 15.3573 9.00473C15.3573 8.9065 15.3379 8.80924 15.3003 8.71851C15.2626 8.62778 15.2075 8.54536 15.1379 8.47598L10.1954 3.53348C10.126 3.46404 10.0436 3.40896 9.95284 3.37139C9.86212 3.33381 9.76488 3.31447 9.66669 3.31447C9.56849 3.31447 9.47125 3.33381 9.38053 3.37139C9.2898 3.40896 9.20737 3.46404 9.13794 3.53348C9.0685 3.60292 9.01342 3.68535 8.97584 3.77607C8.93826 3.8668 8.91892 3.96403 8.91892 4.06223C8.91892 4.16043 8.93826 4.25766 8.97584 4.34839C9.01342 4.43911 9.0685 4.52154 9.13794 4.59098L12.7979 8.25098L4.42044 8.25098C4.00794 8.25098 3.67044 8.58848 3.67044 9.00098C3.67044 9.41348 4.00794 9.75098 4.42044 9.75098Z" fill="#ED5B1F"/>
</svg>
