<svg xmlns="http://www.w3.org/2000/svg" width="19" height="18" viewBox="0 0 19 18" fill="none">
<path d="M14.9198 9.75098L6.54227 9.75098L10.2023 13.411C10.4948 13.7035 10.4948 14.1835 10.2023 14.476C10.1329 14.5455 10.0505 14.6007 9.95974 14.6383C9.86901 14.6759 9.77175 14.6953 9.67352 14.6953C9.5753 14.6953 9.47804 14.6759 9.38731 14.6383C9.29658 14.6007 9.21416 14.5455 9.14477 14.476L4.20227 9.53348C4.13275 9.46409 4.07759 9.38168 4.03995 9.29095C4.00231 9.20022 3.98294 9.10296 3.98294 9.00473C3.98294 8.9065 4.00231 8.80924 4.03995 8.71851C4.07759 8.62778 4.13275 8.54536 4.20227 8.47598L9.14477 3.53348C9.21421 3.46404 9.29664 3.40896 9.38737 3.37139C9.47809 3.33381 9.57533 3.31447 9.67352 3.31447C9.77172 3.31447 9.86896 3.33381 9.95968 3.37139C10.0504 3.40896 10.1328 3.46404 10.2023 3.53348C10.2717 3.60292 10.3268 3.68535 10.3644 3.77607C10.4019 3.8668 10.4213 3.96403 10.4213 4.06223C10.4213 4.16043 10.4019 4.25766 10.3644 4.34839C10.3268 4.43911 10.2717 4.52154 10.2023 4.59098L6.54227 8.25098L14.9198 8.25098C15.3323 8.25098 15.6698 8.58848 15.6698 9.00098C15.6698 9.41348 15.3323 9.75098 14.9198 9.75098Z" fill="orange"/>
</svg>